<svg width="40" height="40" viewBox="0 0 40 40" fill="none" xmlns="http://www.w3.org/2000/svg">
<path d="M0 0H40V40H0V0Z" fill="#F76707"/>
<path d="M16.9989 23.0014C16.9989 25.2115 15.2073 27.0031 12.9973 27.0031C10.7872 27.0031 8.99561 25.2115 8.99561 23.0014C8.99561 20.7914 10.7872 18.9998 12.9973 18.9998C13.6928 18.9984 14.3763 19.1814 14.9781 19.53" stroke="white" stroke-width="1.5" stroke-linecap="round" stroke-linejoin="round"/>
<circle cx="27.0031" cy="23.0014" r="4.00167" stroke="white" stroke-width="1.5" stroke-linecap="round" stroke-linejoin="round"/>
<path d="M27.2533 16.4986C27.585 16.4986 27.903 16.3668 28.1376 16.1323C28.3721 15.8978 28.5038 15.5797 28.5038 15.2481V15.2481C28.5038 14.9164 28.3721 14.5983 28.1376 14.3638C27.903 14.1293 27.585 13.9976 27.2533 13.9976H24.002L27.0032 23.0013" stroke="white" stroke-width="1.5" stroke-linecap="round" stroke-linejoin="round"/>
<path fill-rule="evenodd" clip-rule="evenodd" d="M12.9971 23.0015H18.9996L24.0017 15.9985H16.9987L12.9971 23.0015Z" stroke="white" stroke-width="1.5" stroke-linecap="round" stroke-linejoin="round"/>
<path d="M14.998 13.4975H17.9993" stroke="white" stroke-width="1.5" stroke-linecap="round" stroke-linejoin="round"/>
<path d="M18.9998 23.0013L15.9985 13.4973" stroke="white" stroke-width="1.5" stroke-linecap="round" stroke-linejoin="round"/>
</svg>
