<svg width="119" height="22" viewBox="0 0 119 22" fill="none" xmlns="http://www.w3.org/2000/svg">
<path d="M3.42 1.22V16.02H0V1.22H3.42Z" fill="black"/>
<path d="M10.5784 16.18C9.4851 16.18 8.49844 15.9467 7.61844 15.48C6.75177 15.0133 6.0651 14.3467 5.55844 13.48C5.0651 12.6133 4.81844 11.6 4.81844 10.44C4.81844 9.29333 5.07177 8.28667 5.57844 7.42C6.0851 6.54 6.77844 5.86667 7.65844 5.4C8.53844 4.93333 9.5251 4.7 10.6184 4.7C11.7118 4.7 12.6984 4.93333 13.5784 5.4C14.4584 5.86667 15.1518 6.54 15.6584 7.42C16.1651 8.28667 16.4184 9.29333 16.4184 10.44C16.4184 11.5867 16.1584 12.6 15.6384 13.48C15.1318 14.3467 14.4318 15.0133 13.5384 15.48C12.6584 15.9467 11.6718 16.18 10.5784 16.18ZM10.5784 13.22C11.2318 13.22 11.7851 12.98 12.2384 12.5C12.7051 12.02 12.9384 11.3333 12.9384 10.44C12.9384 9.54667 12.7118 8.86 12.2584 8.38C11.8184 7.9 11.2718 7.66 10.6184 7.66C9.95177 7.66 9.39844 7.9 8.95844 8.38C8.51844 8.84667 8.29844 9.53333 8.29844 10.44C8.29844 11.3333 8.51177 12.02 8.93844 12.5C9.37844 12.98 9.9251 13.22 10.5784 13.22Z" fill="black"/>
<path d="M17.1528 10.44C17.1528 9.28 17.3861 8.26667 17.8528 7.4C18.3328 6.53333 18.9928 5.86667 19.8328 5.4C20.6861 4.93333 21.6595 4.7 22.7528 4.7C24.1528 4.7 25.3195 5.06667 26.2528 5.8C27.1995 6.53333 27.8195 7.56667 28.1128 8.9H24.4728C24.1661 8.04667 23.5728 7.62 22.6928 7.62C22.0661 7.62 21.5661 7.86667 21.1928 8.36C20.8195 8.84 20.6328 9.53333 20.6328 10.44C20.6328 11.3467 20.8195 12.0467 21.1928 12.54C21.5661 13.02 22.0661 13.26 22.6928 13.26C23.5728 13.26 24.1661 12.8333 24.4728 11.98H28.1128C27.8195 13.2867 27.1995 14.3133 26.2528 15.06C25.3061 15.8067 24.1395 16.18 22.7528 16.18C21.6595 16.18 20.6861 15.9467 19.8328 15.48C18.9928 15.0133 18.3328 14.3467 17.8528 13.48C17.3861 12.6133 17.1528 11.6 17.1528 10.44Z" fill="black"/>
<path d="M28.8622 10.42C28.8622 9.27333 29.0755 8.26667 29.5022 7.4C29.9422 6.53333 30.5355 5.86667 31.2822 5.4C32.0289 4.93333 32.8622 4.7 33.7822 4.7C34.5689 4.7 35.2555 4.86 35.8422 5.18C36.4422 5.5 36.9022 5.92 37.2222 6.44V4.86H40.6422V16.02H37.2222V14.44C36.8889 14.96 36.4222 15.38 35.8222 15.7C35.2355 16.02 34.5489 16.18 33.7622 16.18C32.8555 16.18 32.0289 15.9467 31.2822 15.48C30.5355 15 29.9422 14.3267 29.5022 13.46C29.0755 12.58 28.8622 11.5667 28.8622 10.42ZM37.2222 10.44C37.2222 9.58667 36.9822 8.91333 36.5022 8.42C36.0355 7.92667 35.4622 7.68 34.7822 7.68C34.1022 7.68 33.5222 7.92667 33.0422 8.42C32.5755 8.9 32.3422 9.56667 32.3422 10.42C32.3422 11.2733 32.5755 11.9533 33.0422 12.46C33.5222 12.9533 34.1022 13.2 34.7822 13.2C35.4622 13.2 36.0355 12.9533 36.5022 12.46C36.9822 11.9667 37.2222 11.2933 37.2222 10.44Z" fill="black"/>
<path d="M46.1364 1.22V16.02H42.7164V1.22H46.1364Z" fill="black"/>
<path d="M49.32 10.44C49.32 9.28 49.5533 8.26667 50.02 7.4C50.5 6.53333 51.16 5.86667 52 5.4C52.8533 4.93333 53.8267 4.7 54.92 4.7C56.32 4.7 57.4867 5.06667 58.42 5.8C59.3667 6.53333 59.9867 7.56667 60.28 8.9H56.64C56.3333 8.04667 55.74 7.62 54.86 7.62C54.2333 7.62 53.7333 7.86667 53.36 8.36C52.9867 8.84 52.8 9.53333 52.8 10.44C52.8 11.3467 52.9867 12.0467 53.36 12.54C53.7333 13.02 54.2333 13.26 54.86 13.26C55.74 13.26 56.3333 12.8333 56.64 11.98H60.28C59.9867 13.2867 59.3667 14.3133 58.42 15.06C57.4733 15.8067 56.3067 16.18 54.92 16.18C53.8267 16.18 52.8533 15.9467 52 15.48C51.16 15.0133 50.5 14.3467 50.02 13.48C49.5533 12.6133 49.32 11.6 49.32 10.44Z" fill="#FD7E14"/>
<path d="M72.7094 4.86L65.7094 21.32H62.0294L64.5894 15.64L60.0494 4.86H63.8694L66.4494 11.84L69.0094 4.86H72.7094Z" fill="#FD7E14"/>
<path d="M72.4661 10.44C72.4661 9.28 72.6994 8.26667 73.1661 7.4C73.6461 6.53333 74.3061 5.86667 75.1461 5.4C75.9994 4.93333 76.9728 4.7 78.0661 4.7C79.4661 4.7 80.6328 5.06667 81.5661 5.8C82.5128 6.53333 83.1328 7.56667 83.4261 8.9H79.7861C79.4794 8.04667 78.8861 7.62 78.0061 7.62C77.3794 7.62 76.8794 7.86667 76.5061 8.36C76.1328 8.84 75.9461 9.53333 75.9461 10.44C75.9461 11.3467 76.1328 12.0467 76.5061 12.54C76.8794 13.02 77.3794 13.26 78.0061 13.26C78.8861 13.26 79.4794 12.8333 79.7861 11.98H83.4261C83.1328 13.2867 82.5128 14.3133 81.5661 15.06C80.6194 15.8067 79.4528 16.18 78.0661 16.18C76.9728 16.18 75.9994 15.9467 75.1461 15.48C74.3061 15.0133 73.6461 14.3467 73.1661 13.48C72.6994 12.6133 72.4661 11.6 72.4661 10.44Z" fill="#FD7E14"/>
<path d="M87.8755 1.22V16.02H84.4555V1.22H87.8755Z" fill="#FD7E14"/>
<path d="M91.2739 3.7C90.6739 3.7 90.1806 3.52667 89.7939 3.18C89.4206 2.82 89.2339 2.38 89.2339 1.86C89.2339 1.32667 89.4206 0.886667 89.7939 0.54C90.1806 0.18 90.6739 0 91.2739 0C91.8606 0 92.3406 0.18 92.7139 0.54C93.1006 0.886667 93.2939 1.32667 93.2939 1.86C93.2939 2.38 93.1006 2.82 92.7139 3.18C92.3406 3.52667 91.8606 3.7 91.2739 3.7ZM92.9739 4.86V16.02H89.5539V4.86H92.9739Z" fill="#FD7E14"/>
<path d="M101.452 4.74C102.759 4.74 103.799 5.16667 104.572 6.02C105.359 6.86 105.752 8.02 105.752 9.5V16.02H102.352V9.96C102.352 9.21333 102.159 8.63333 101.772 8.22C101.386 7.80667 100.866 7.6 100.212 7.6C99.559 7.6 99.039 7.80667 98.6523 8.22C98.2657 8.63333 98.0723 9.21333 98.0723 9.96V16.02H94.6523V4.86H98.0723V6.34C98.419 5.84667 98.8857 5.46 99.4723 5.18C100.059 4.88667 100.719 4.74 101.452 4.74Z" fill="#FD7E14"/>
<path d="M111.569 4.7C112.356 4.7 113.042 4.86 113.629 5.18C114.229 5.5 114.689 5.92 115.009 6.44V4.86H118.429V16C118.429 17.0267 118.222 17.9533 117.809 18.78C117.409 19.62 116.789 20.2867 115.949 20.78C115.122 21.2733 114.089 21.52 112.849 21.52C111.196 21.52 109.856 21.1267 108.829 20.34C107.802 19.5667 107.216 18.5133 107.069 17.18H110.449C110.556 17.6067 110.809 17.94 111.209 18.18C111.609 18.4333 112.102 18.56 112.689 18.56C113.396 18.56 113.956 18.3533 114.369 17.94C114.796 17.54 115.009 16.8933 115.009 16V14.42C114.676 14.94 114.216 15.3667 113.629 15.7C113.042 16.02 112.356 16.18 111.569 16.18C110.649 16.18 109.816 15.9467 109.069 15.48C108.322 15 107.729 14.3267 107.289 13.46C106.862 12.58 106.649 11.5667 106.649 10.42C106.649 9.27333 106.862 8.26667 107.289 7.4C107.729 6.53333 108.322 5.86667 109.069 5.4C109.816 4.93333 110.649 4.7 111.569 4.7ZM115.009 10.44C115.009 9.58667 114.769 8.91333 114.289 8.42C113.822 7.92667 113.249 7.68 112.569 7.68C111.889 7.68 111.309 7.92667 110.829 8.42C110.362 8.9 110.129 9.56667 110.129 10.42C110.129 11.2733 110.362 11.9533 110.829 12.46C111.309 12.9533 111.889 13.2 112.569 13.2C113.249 13.2 113.822 12.9533 114.289 12.46C114.769 11.9667 115.009 11.2933 115.009 10.44Z" fill="#FD7E14"/>
</svg>
