<svg width="119" height="22" viewBox="0 0 119 22" fill="none" xmlns="http://www.w3.org/2000/svg">
<path d="M3.42 1.24002V16.04H0V1.24002H3.42Z" fill="white"/>
<path d="M10.5784 16.2C9.4851 16.2 8.49844 15.9667 7.61844 15.5C6.75177 15.0334 6.0651 14.3667 5.55844 13.5C5.0651 12.6334 4.81844 11.62 4.81844 10.46C4.81844 9.31335 5.07177 8.30669 5.57844 7.44002C6.0851 6.56002 6.77844 5.88669 7.65844 5.42002C8.53844 4.95335 9.5251 4.72002 10.6184 4.72002C11.7118 4.72002 12.6984 4.95335 13.5784 5.42002C14.4584 5.88669 15.1518 6.56002 15.6584 7.44002C16.1651 8.30669 16.4184 9.31335 16.4184 10.46C16.4184 11.6067 16.1584 12.62 15.6384 13.5C15.1318 14.3667 14.4318 15.0334 13.5384 15.5C12.6584 15.9667 11.6718 16.2 10.5784 16.2ZM10.5784 13.24C11.2318 13.24 11.7851 13 12.2384 12.52C12.7051 12.04 12.9384 11.3534 12.9384 10.46C12.9384 9.56669 12.7118 8.88002 12.2584 8.40002C11.8184 7.92002 11.2718 7.68002 10.6184 7.68002C9.95177 7.68002 9.39844 7.92002 8.95844 8.40002C8.51844 8.86669 8.29844 9.55335 8.29844 10.46C8.29844 11.3534 8.51177 12.04 8.93844 12.52C9.37844 13 9.9251 13.24 10.5784 13.24Z" fill="white"/>
<path d="M17.1528 10.46C17.1528 9.30002 17.3861 8.28669 17.8528 7.42002C18.3328 6.55335 18.9928 5.88669 19.8328 5.42002C20.6861 4.95335 21.6595 4.72002 22.7528 4.72002C24.1528 4.72002 25.3195 5.08669 26.2528 5.82002C27.1995 6.55335 27.8195 7.58669 28.1128 8.92002H24.4728C24.1661 8.06669 23.5728 7.64002 22.6928 7.64002C22.0661 7.64002 21.5661 7.88669 21.1928 8.38002C20.8195 8.86002 20.6328 9.55335 20.6328 10.46C20.6328 11.3667 20.8195 12.0667 21.1928 12.56C21.5661 13.04 22.0661 13.28 22.6928 13.28C23.5728 13.28 24.1661 12.8534 24.4728 12H28.1128C27.8195 13.3067 27.1995 14.3334 26.2528 15.08C25.3061 15.8267 24.1395 16.2 22.7528 16.2C21.6595 16.2 20.6861 15.9667 19.8328 15.5C18.9928 15.0334 18.3328 14.3667 17.8528 13.5C17.3861 12.6334 17.1528 11.62 17.1528 10.46Z" fill="white"/>
<path d="M28.8622 10.44C28.8622 9.29335 29.0755 8.28669 29.5022 7.42002C29.9422 6.55335 30.5355 5.88669 31.2822 5.42002C32.0289 4.95335 32.8622 4.72002 33.7822 4.72002C34.5689 4.72002 35.2555 4.88002 35.8422 5.20002C36.4422 5.52002 36.9022 5.94002 37.2222 6.46002V4.88002H40.6422V16.04H37.2222V14.46C36.8889 14.98 36.4222 15.4 35.8222 15.72C35.2355 16.04 34.5489 16.2 33.7622 16.2C32.8555 16.2 32.0289 15.9667 31.2822 15.5C30.5355 15.02 29.9422 14.3467 29.5022 13.48C29.0755 12.6 28.8622 11.5867 28.8622 10.44ZM37.2222 10.46C37.2222 9.60669 36.9822 8.93335 36.5022 8.44002C36.0355 7.94669 35.4622 7.70002 34.7822 7.70002C34.1022 7.70002 33.5222 7.94669 33.0422 8.44002C32.5755 8.92002 32.3422 9.58669 32.3422 10.44C32.3422 11.2934 32.5755 11.9734 33.0422 12.48C33.5222 12.9734 34.1022 13.22 34.7822 13.22C35.4622 13.22 36.0355 12.9734 36.5022 12.48C36.9822 11.9867 37.2222 11.3134 37.2222 10.46Z" fill="white"/>
<path d="M46.1364 1.24002V16.04H42.7164V1.24002H46.1364Z" fill="white"/>
<path d="M49.32 10.46C49.32 9.30002 49.5533 8.28669 50.02 7.42002C50.5 6.55335 51.16 5.88669 52 5.42002C52.8533 4.95335 53.8267 4.72002 54.92 4.72002C56.32 4.72002 57.4867 5.08669 58.42 5.82002C59.3667 6.55335 59.9867 7.58669 60.28 8.92002H56.64C56.3333 8.06669 55.74 7.64002 54.86 7.64002C54.2333 7.64002 53.7333 7.88669 53.36 8.38002C52.9867 8.86002 52.8 9.55335 52.8 10.46C52.8 11.3667 52.9867 12.0667 53.36 12.56C53.7333 13.04 54.2333 13.28 54.86 13.28C55.74 13.28 56.3333 12.8534 56.64 12H60.28C59.9867 13.3067 59.3667 14.3334 58.42 15.08C57.4733 15.8267 56.3067 16.2 54.92 16.2C53.8267 16.2 52.8533 15.9667 52 15.5C51.16 15.0334 50.5 14.3667 50.02 13.5C49.5533 12.6334 49.32 11.62 49.32 10.46Z" fill="#FD7E14"/>
<path d="M72.7094 4.88002L65.7094 21.34H62.0294L64.5894 15.66L60.0494 4.88002H63.8694L66.4494 11.86L69.0094 4.88002H72.7094Z" fill="#FD7E14"/>
<path d="M72.4661 10.46C72.4661 9.30002 72.6994 8.28669 73.1661 7.42002C73.6461 6.55335 74.3061 5.88669 75.1461 5.42002C75.9994 4.95335 76.9728 4.72002 78.0661 4.72002C79.4661 4.72002 80.6328 5.08669 81.5661 5.82002C82.5128 6.55335 83.1328 7.58669 83.4261 8.92002H79.7861C79.4794 8.06669 78.8861 7.64002 78.0061 7.64002C77.3794 7.64002 76.8794 7.88669 76.5061 8.38002C76.1328 8.86002 75.9461 9.55335 75.9461 10.46C75.9461 11.3667 76.1328 12.0667 76.5061 12.56C76.8794 13.04 77.3794 13.28 78.0061 13.28C78.8861 13.28 79.4794 12.8534 79.7861 12H83.4261C83.1328 13.3067 82.5128 14.3334 81.5661 15.08C80.6194 15.8267 79.4528 16.2 78.0661 16.2C76.9728 16.2 75.9994 15.9667 75.1461 15.5C74.3061 15.0334 73.6461 14.3667 73.1661 13.5C72.6994 12.6334 72.4661 11.62 72.4661 10.46Z" fill="#FD7E14"/>
<path d="M87.8755 1.24002V16.04H84.4555V1.24002H87.8755Z" fill="#FD7E14"/>
<path d="M91.2739 3.72002C90.6739 3.72002 90.1806 3.54669 89.7939 3.20002C89.4206 2.84002 89.2339 2.40002 89.2339 1.88002C89.2339 1.34669 89.4206 0.906687 89.7939 0.56002C90.1806 0.20002 90.6739 0.0200195 91.2739 0.0200195C91.8606 0.0200195 92.3406 0.20002 92.7139 0.56002C93.1006 0.906687 93.2939 1.34669 93.2939 1.88002C93.2939 2.40002 93.1006 2.84002 92.7139 3.20002C92.3406 3.54669 91.8606 3.72002 91.2739 3.72002ZM92.9739 4.88002V16.04H89.5539V4.88002H92.9739Z" fill="#FD7E14"/>
<path d="M101.452 4.76002C102.759 4.76002 103.799 5.18669 104.572 6.04002C105.359 6.88002 105.752 8.04002 105.752 9.52002V16.04H102.352V9.98002C102.352 9.23335 102.159 8.65335 101.772 8.24002C101.386 7.82669 100.866 7.62002 100.212 7.62002C99.559 7.62002 99.039 7.82669 98.6523 8.24002C98.2657 8.65335 98.0723 9.23335 98.0723 9.98002V16.04H94.6523V4.88002H98.0723V6.36002C98.419 5.86669 98.8857 5.48002 99.4723 5.20002C100.059 4.90669 100.719 4.76002 101.452 4.76002Z" fill="#FD7E14"/>
<path d="M111.569 4.72002C112.356 4.72002 113.042 4.88002 113.629 5.20002C114.229 5.52002 114.689 5.94002 115.009 6.46002V4.88002H118.429V16.02C118.429 17.0467 118.222 17.9734 117.809 18.8C117.409 19.64 116.789 20.3067 115.949 20.8C115.122 21.2934 114.089 21.54 112.849 21.54C111.196 21.54 109.856 21.1467 108.829 20.36C107.802 19.5867 107.216 18.5334 107.069 17.2H110.449C110.556 17.6267 110.809 17.96 111.209 18.2C111.609 18.4534 112.102 18.58 112.689 18.58C113.396 18.58 113.956 18.3734 114.369 17.96C114.796 17.56 115.009 16.9134 115.009 16.02V14.44C114.676 14.96 114.216 15.3867 113.629 15.72C113.042 16.04 112.356 16.2 111.569 16.2C110.649 16.2 109.816 15.9667 109.069 15.5C108.322 15.02 107.729 14.3467 107.289 13.48C106.862 12.6 106.649 11.5867 106.649 10.44C106.649 9.29335 106.862 8.28669 107.289 7.42002C107.729 6.55335 108.322 5.88669 109.069 5.42002C109.816 4.95335 110.649 4.72002 111.569 4.72002ZM115.009 10.46C115.009 9.60669 114.769 8.93335 114.289 8.44002C113.822 7.94669 113.249 7.70002 112.569 7.70002C111.889 7.70002 111.309 7.94669 110.829 8.44002C110.362 8.92002 110.129 9.58669 110.129 10.44C110.129 11.2934 110.362 11.9734 110.829 12.48C111.309 12.9734 111.889 13.22 112.569 13.22C113.249 13.22 113.822 12.9734 114.289 12.48C114.769 11.9867 115.009 11.3134 115.009 10.46Z" fill="#FD7E14"/>
</svg>
