<svg width="112" height="36" viewBox="0 0 112 36" fill="none" xmlns="http://www.w3.org/2000/svg">
<path d="M101.448 1.00002H10.5555C10.1876 1.00002 9.82478 1.00002 9.45892 1.00202C9.15119 1.00402 8.84748 1.01002 8.53775 1.01501C7.87018 1.03101 7.19559 1.07198 6.52902 1.19092C5.85844 1.30886 5.23497 1.50875 4.62453 1.81759C4.02412 2.12443 3.47583 2.52222 3.00171 2.99596C2.52258 3.46871 2.12465 4.01742 1.82093 4.61611C1.5092 5.22378 1.31173 5.84845 1.19446 6.5181C1.07417 7.17975 1.03208 7.84839 1.01504 8.51804C1.00601 8.82487 1.00501 9.13171 1 9.43855C1 9.80036 1 10.1632 1 10.53V25.4701C1 25.8389 1 26.1997 1 26.5635C1.00501 26.8733 1.00601 27.1741 1.01504 27.485C1.03208 28.1546 1.07417 28.8243 1.19446 29.4859C1.31173 30.1556 1.5092 30.7832 1.82093 31.3889C2.12465 31.9846 2.52258 32.5323 3.00171 33.0021C3.47583 33.4788 4.02412 33.8766 4.62353 34.1794C5.23397 34.4913 5.85744 34.6892 6.52902 34.8101C7.19459 34.929 7.87018 34.968 8.53775 34.987C8.84748 34.994 9.15219 34.998 9.45892 34.998C9.82578 35 10.1886 35 10.5565 35H101.449C101.808 35 102.174 35 102.535 34.998C102.841 34.998 103.154 34.994 103.459 34.987C104.131 34.969 104.804 34.929 105.464 34.8101C106.136 34.6892 106.76 34.4923 107.376 34.1794C107.975 33.8756 108.523 33.4788 108.997 33.0021C109.474 32.5323 109.872 31.9846 110.181 31.3889C110.489 30.7832 110.688 30.1556 110.802 29.4859C110.925 28.8243 110.964 28.1546 110.988 27.485C110.992 27.1741 110.992 26.8743 110.992 26.5635C111 26.2007 111 25.8399 111 25.4701V10.529C111 10.1632 111 9.80036 110.992 9.43755C110.992 9.13071 110.992 8.82388 110.988 8.51704C110.965 7.84739 110.926 7.17775 110.802 6.5161C110.688 5.84645 110.489 5.22178 110.181 4.61411C109.871 4.01542 109.474 3.46771 108.997 2.99397C108.523 2.52022 107.976 2.12243 107.376 1.81559C106.76 1.50575 106.136 1.30586 105.464 1.18892C104.804 1.06999 104.131 1.02901 103.459 1.01202C103.154 1.00702 102.841 1.00102 102.535 0.999023C102.174 1.00002 101.808 1.00002 101.448 1.00002Z" fill="#424242"/>
<path d="M101.448 1.64941C101.806 1.64941 102.171 1.64941 102.53 1.65141C102.777 1.65341 103.029 1.65741 103.278 1.66141L103.442 1.66441C103.973 1.6774 104.667 1.70838 105.351 1.83132C105.971 1.93926 106.538 2.12516 107.078 2.39602C107.618 2.67287 108.108 3.02868 108.536 3.45646C108.96 3.87623 109.318 4.36597 109.598 4.90769C109.869 5.4464 110.053 6.0081 110.159 6.63577C110.276 7.26544 110.312 7.92309 110.335 8.52577C110.339 8.82961 110.339 9.13445 110.339 9.45128C110.347 9.80909 110.347 10.1669 110.347 10.5287V25.4688C110.347 25.8326 110.347 26.1894 110.339 26.5622C110.339 26.87 110.339 27.1679 110.335 27.4607C110.312 28.0774 110.276 28.7351 110.157 29.3757C110.052 29.9974 109.868 30.5591 109.601 31.0878C109.316 31.6365 108.958 32.1243 108.532 32.543C108.108 32.9698 107.62 33.3246 107.08 33.5985C106.548 33.8683 105.98 34.0542 105.347 34.1692C104.69 34.2881 104.015 34.3201 103.444 34.3361C103.144 34.3431 102.836 34.3471 102.531 34.3471C102.172 34.3491 101.807 34.3491 101.449 34.3491H10.5556C10.1897 34.3491 9.82786 34.3491 9.45799 34.3471C9.15628 34.3471 8.85658 34.3431 8.55487 34.3371C7.98152 34.3211 7.30693 34.2891 6.64437 34.1702C6.00987 34.0562 5.44554 33.8693 4.9183 33.5995C4.37803 33.3266 3.88888 32.9708 3.45786 32.537C3.03487 32.1223 2.67903 31.6365 2.40037 31.0908C2.13174 30.5681 1.94631 30.0054 1.83504 29.3677C1.71075 28.6871 1.67968 27.9944 1.66564 27.4647C1.65963 27.2568 1.65662 27.0539 1.65462 26.8491L1.65161 26.5622V25.4688V10.5287V9.44828L1.65562 9.14944C1.65763 8.94555 1.66063 8.74165 1.66665 8.53476C1.67968 8.00704 1.71175 7.31441 1.83705 6.62877C1.94731 5.99911 2.13174 5.43741 2.40238 4.90869C2.67803 4.36597 3.03387 3.87723 3.46288 3.45446C3.88988 3.02768 4.38104 2.67187 4.91931 2.39702C5.45657 2.12416 6.0199 1.93926 6.64437 1.83032C7.32998 1.70738 8.02562 1.6774 8.54785 1.66341L8.74632 1.66041C8.98588 1.65641 9.22344 1.65241 9.462 1.65141C9.82686 1.64941 10.1897 1.64941 10.5556 1.64941H101.448Z" fill="#2E2E2E"/>
<path d="M33.0756 15.5194H9.01892V11.7578C9.01892 9.71572 10.7845 7.99609 12.8812 7.99609H29.2133C31.3099 7.99609 33.0756 9.71572 33.0756 11.7578V15.5194Z" fill="#34A853"/>
<path d="M33.0756 18.9899H9.01892V14.992C9.01892 12.8218 10.7845 10.9941 12.8812 10.9941H29.2133C31.3099 10.9941 33.0756 12.8218 33.0756 14.992V18.9899Z" fill="#FBBC04"/>
<path d="M33.0756 22.3228H9.01892V18.3249C9.01892 16.1547 10.7845 14.3271 12.8812 14.3271H29.2133C31.3099 14.3271 33.0756 16.1547 33.0756 18.3249V22.3228Z" fill="#EA4335"/>
<path d="M9.01892 16.4855L24.2877 19.9247C26.0453 20.3546 28.0226 19.9247 29.4506 18.8499L33.0756 16.2705V24.3312C33.0756 26.3732 31.318 27.9854 29.2309 27.9854H12.8636C10.7765 27.9854 9.01892 26.3732 9.01892 24.3312V16.4855Z" fill="url(#paint0_linear_2326_15447)"/>
<path d="M39.0897 13.8842L41.207 8.99609H42.1873L44.3124 13.8842H43.3636L42.846 12.6281H40.5562L40.0386 13.8842H39.0897ZM41.4658 10.4366L40.8463 11.9317H42.5559L41.9363 10.4366L41.7246 9.87677H41.6776L41.4658 10.4366ZM46.521 13.9935C46.1603 13.9935 45.8336 13.9161 45.5408 13.7613C45.2533 13.6021 45.0232 13.3836 44.8507 13.1059C44.6834 12.8238 44.5998 12.5029 44.5998 12.1433C44.5998 11.7838 44.6834 11.4652 44.8507 11.1876C45.0232 10.9099 45.2533 10.6915 45.5408 10.5322C45.8336 10.3729 46.1603 10.2932 46.521 10.2932C46.8295 10.2932 47.0935 10.3524 47.3131 10.4707C47.5379 10.5891 47.7026 10.7233 47.8071 10.8735H47.8542L47.8071 10.3888V8.99609H48.6462V13.8842H47.8542V13.42H47.8071C47.7026 13.5702 47.5379 13.7045 47.3131 13.8228C47.0935 13.9366 46.8295 13.9935 46.521 13.9935ZM46.6465 13.3176C46.8556 13.3176 47.0517 13.2698 47.2347 13.1742C47.4229 13.0786 47.5719 12.9444 47.6816 12.7714C47.7967 12.5939 47.8542 12.3845 47.8542 12.1433C47.8542 11.9021 47.7967 11.695 47.6816 11.5221C47.5719 11.3446 47.4229 11.208 47.2347 11.1125C47.0517 11.0169 46.8556 10.9691 46.6465 10.9691C46.4374 10.9691 46.2414 11.0169 46.0584 11.1125C45.8754 11.208 45.7264 11.3446 45.6114 11.5221C45.4964 11.695 45.4389 11.9021 45.4389 12.1433C45.4389 12.3845 45.4964 12.5939 45.6114 12.7714C45.7264 12.9444 45.8754 13.0786 46.0584 13.1742C46.2414 13.2698 46.4374 13.3176 46.6465 13.3176ZM51.3151 13.9935C50.9543 13.9935 50.6276 13.9161 50.3348 13.7613C50.0473 13.6021 49.8172 13.3836 49.6447 13.1059C49.4774 12.8238 49.3938 12.5029 49.3938 12.1433C49.3938 11.7838 49.4774 11.4652 49.6447 11.1876C49.8172 10.9099 50.0473 10.6915 50.3348 10.5322C50.6276 10.3729 50.9543 10.2932 51.3151 10.2932C51.6235 10.2932 51.8875 10.3524 52.1071 10.4707C52.3319 10.5891 52.4966 10.7233 52.6011 10.8735H52.6482L52.6011 10.3888V8.99609H53.4402V13.8842H52.6482V13.42H52.6011C52.4966 13.5702 52.3319 13.7045 52.1071 13.8228C51.8875 13.9366 51.6235 13.9935 51.3151 13.9935ZM51.4405 13.3176C51.6497 13.3176 51.8457 13.2698 52.0287 13.1742C52.2169 13.0786 52.3659 12.9444 52.4757 12.7714C52.5907 12.5939 52.6482 12.3845 52.6482 12.1433C52.6482 11.9021 52.5907 11.695 52.4757 11.5221C52.3659 11.3446 52.2169 11.208 52.0287 11.1125C51.8457 11.0169 51.6497 10.9691 51.4405 10.9691C51.2314 10.9691 51.0353 11.0169 50.8524 11.1125C50.6694 11.208 50.5204 11.3446 50.4054 11.5221C50.2904 11.695 50.2329 11.9021 50.2329 12.1433C50.2329 12.3845 50.2904 12.5939 50.4054 12.7714C50.5204 12.9444 50.6694 13.0786 50.8524 13.1742C51.0353 13.2698 51.2314 13.3176 51.4405 13.3176ZM56.6915 12.8738V11.0442H55.9936V10.4025H56.6915V9.41936H57.5385V10.4025H58.519V11.0442H57.5385V12.7168C57.5385 12.8897 57.5777 13.0218 57.6561 13.1128C57.7397 13.2038 57.8784 13.2493 58.072 13.2493C58.171 13.2493 58.2548 13.2379 58.323 13.2152C58.396 13.1924 58.469 13.1606 58.5425 13.1196V13.8364C58.4533 13.8683 58.3592 13.8933 58.2602 13.9115C58.1607 13.9298 58.0431 13.9388 57.9073 13.9388C57.5359 13.9388 57.2405 13.8455 57.0209 13.6589C56.8013 13.4678 56.6915 13.2061 56.6915 12.8738ZM61.0604 13.9935C60.6472 13.9935 60.2841 13.9115 59.9704 13.7477C59.6567 13.5838 59.4106 13.3631 59.2332 13.0855C59.0553 12.8078 58.9666 12.4938 58.9666 12.1433C58.9666 11.7974 59.0553 11.4857 59.2332 11.208C59.4106 10.9259 59.6567 10.7029 59.9704 10.539C60.2841 10.3752 60.6472 10.2932 61.0604 10.2932C61.4682 10.2932 61.8289 10.3752 62.1426 10.539C62.4563 10.7029 62.7018 10.9259 62.8797 11.208C63.0571 11.4857 63.1464 11.7974 63.1464 12.1433C63.1464 12.4938 63.0571 12.8078 62.8797 13.0855C62.7018 13.3631 62.4563 13.5838 62.1426 13.7477C61.8289 13.9115 61.4682 13.9935 61.0604 13.9935ZM61.0604 13.3176C61.28 13.3176 61.4839 13.2721 61.6721 13.181C61.8603 13.0855 62.0117 12.9512 62.1269 12.7783C62.247 12.6008 62.3073 12.3891 62.3073 12.1433C62.3073 11.8976 62.247 11.6882 62.1269 11.5153C62.0117 11.3378 61.8603 11.2035 61.6721 11.1125C61.4839 11.0169 61.28 10.9691 61.0604 10.9691C60.8408 10.9691 60.6339 11.0169 60.4409 11.1125C60.2527 11.2035 60.0983 11.3378 59.9782 11.5153C59.863 11.6882 59.8057 11.8976 59.8057 12.1433C59.8057 12.3891 59.863 12.6008 59.9782 12.7783C60.0983 12.9512 60.2527 13.0855 60.4409 13.181C60.6339 13.2721 60.8408 13.3176 61.0604 13.3176Z" fill="white"/>
<path d="M43.8396 25.7464C43.3265 25.7464 42.8436 25.6496 42.3905 25.4561C41.9442 25.2626 41.5477 24.9931 41.2013 24.6474C40.8549 24.2949 40.5817 23.8837 40.3819 23.4136C40.1886 22.9367 40.092 22.4218 40.092 21.8688C40.092 21.3158 40.1886 20.8044 40.3819 20.3344C40.5817 19.8574 40.8515 19.4462 41.1913 19.1006C41.5377 18.7481 41.9375 18.475 42.3905 18.2815C42.8436 18.088 43.3265 17.9912 43.8396 17.9912C44.3858 17.9912 44.8889 18.0914 45.3486 18.2919C45.8149 18.4923 46.2046 18.7723 46.5178 19.1317L45.7583 19.9093C45.5251 19.6397 45.2453 19.4324 44.9188 19.2872C44.5991 19.1421 44.2393 19.0695 43.8396 19.0695C43.3665 19.0695 42.9302 19.187 42.5304 19.422C42.1307 19.6501 41.8076 19.975 41.5611 20.3966C41.3212 20.8113 41.2013 21.3021 41.2013 21.8688C41.2013 22.4356 41.3246 22.9298 41.5711 23.3514C41.8175 23.7662 42.1407 24.091 42.5404 24.326C42.9402 24.5541 43.3765 24.6682 43.8496 24.6682C44.2826 24.6682 44.6757 24.5852 45.0288 24.4193C45.3819 24.2466 45.665 24.0046 45.8782 23.6936C46.0981 23.3825 46.2313 23.0093 46.2779 22.5738H43.8296V21.5682H47.3073C47.3472 21.7548 47.3672 21.9518 47.3672 22.1591V22.1695C47.3672 22.8884 47.214 23.5173 46.9075 24.0565C46.6077 24.5887 46.1914 25.0034 45.6584 25.3006C45.1254 25.5978 44.5191 25.7464 43.8396 25.7464ZM50.585 25.7464C50.0587 25.7464 49.5957 25.622 49.196 25.3732C48.7962 25.1244 48.4831 24.7891 48.2566 24.3675C48.03 23.9459 47.9168 23.469 47.9168 22.9367C47.9168 22.4114 48.03 21.9379 48.2566 21.5163C48.4831 21.0878 48.7962 20.7491 49.196 20.5003C49.5957 20.2514 50.0587 20.127 50.585 20.127C51.1047 20.127 51.5644 20.2514 51.9641 20.5003C52.3639 20.7491 52.6769 21.0878 52.9035 21.5163C53.13 21.9379 53.2433 22.4114 53.2433 22.9367C53.2433 23.469 53.13 23.9459 52.9035 24.3675C52.6769 24.7891 52.3639 25.1244 51.9641 25.3732C51.5644 25.622 51.1047 25.7464 50.585 25.7464ZM50.585 24.72C50.8648 24.72 51.1247 24.6509 51.3645 24.5127C51.6044 24.3675 51.7975 24.1636 51.9441 23.9009C52.0973 23.6314 52.174 23.31 52.174 22.9367C52.174 22.5635 52.0973 22.2455 51.9441 21.9829C51.7975 21.7133 51.6044 21.5094 51.3645 21.3712C51.1247 21.226 50.8648 21.1534 50.585 21.1534C50.3052 21.1534 50.042 21.226 49.7956 21.3712C49.5557 21.5094 49.3591 21.7133 49.2059 21.9829C49.0593 22.2455 48.9861 22.5635 48.9861 22.9367C48.9861 23.31 49.0593 23.6314 49.2059 23.9009C49.3591 24.1636 49.5557 24.3675 49.7956 24.5127C50.042 24.6509 50.3052 24.72 50.585 24.72ZM56.6357 25.7464C56.1094 25.7464 55.6463 25.622 55.2466 25.3732C54.8469 25.1244 54.5338 24.7891 54.3072 24.3675C54.0807 23.9459 53.9674 23.469 53.9674 22.9367C53.9674 22.4114 54.0807 21.9379 54.3072 21.5163C54.5338 21.0878 54.8469 20.7491 55.2466 20.5003C55.6463 20.2514 56.1094 20.127 56.6357 20.127C57.1553 20.127 57.615 20.2514 58.0149 20.5003C58.4146 20.7491 58.7279 21.0878 58.9543 21.5163C59.1806 21.9379 59.294 22.4114 59.294 22.9367C59.294 23.469 59.1806 23.9459 58.9543 24.3675C58.7279 24.7891 58.4146 25.1244 58.0149 25.3732C57.615 25.622 57.1553 25.7464 56.6357 25.7464ZM56.6357 24.72C56.9155 24.72 57.1753 24.6509 57.4152 24.5127C57.655 24.3675 57.8482 24.1636 57.9949 23.9009C58.1483 23.6314 58.2247 23.31 58.2247 22.9367C58.2247 22.5635 58.1483 22.2455 57.9949 21.9829C57.8482 21.7133 57.655 21.5094 57.4152 21.3712C57.1753 21.226 56.9155 21.1534 56.6357 21.1534C56.3559 21.1534 56.0927 21.226 55.8462 21.3712C55.6064 21.5094 55.4098 21.7133 55.2566 21.9829C55.11 22.2455 55.0367 22.5635 55.0367 22.9367C55.0367 23.31 55.11 23.6314 55.2566 23.9009C55.4098 24.1636 55.6064 24.3675 55.8462 24.5127C56.0927 24.6509 56.3559 24.72 56.6357 24.72ZM62.5866 27.9859C62.1398 27.9859 61.7536 27.9099 61.4273 27.7578C61.1075 27.6127 60.8477 27.4226 60.6478 27.1876C60.448 26.9595 60.3045 26.7245 60.2181 26.4826L61.2175 26.0471C61.3239 26.3236 61.4938 26.5482 61.7271 26.721C61.967 26.9008 62.2532 26.9906 62.5866 26.9906C63.0527 26.9906 63.4189 26.8454 63.6858 26.5551C63.9586 26.2648 64.0956 25.8536 64.0956 25.3214V24.8133H64.0356C63.8757 25.0622 63.6523 25.2626 63.366 25.4147C63.0862 25.5598 62.7664 25.6324 62.4067 25.6324C61.9734 25.6324 61.5772 25.5183 61.2175 25.2902C60.8577 25.0622 60.5679 24.7442 60.348 24.3364C60.1282 23.9217 60.0183 23.4379 60.0183 22.8849C60.0183 22.325 60.1282 21.8412 60.348 21.4334C60.5679 21.0187 60.8577 20.6972 61.2175 20.4692C61.5772 20.2411 61.9734 20.127 62.4067 20.127C62.7664 20.127 63.0862 20.2031 63.366 20.3551C63.6523 20.5071 63.8757 20.7076 64.0356 20.9564H64.0956V20.2929H65.1249V25.3006C65.1249 25.8743 65.015 26.3616 64.7951 26.7625C64.5817 27.1634 64.2854 27.4675 63.9057 27.6749C63.5259 27.8822 63.0862 27.9859 62.5866 27.9859ZM62.5965 24.6163C62.8628 24.6163 63.1092 24.5506 63.3361 24.4193C63.5624 24.2811 63.7458 24.0841 63.8857 23.8284C64.0256 23.5657 64.0956 23.2512 64.0956 22.8849C64.0956 22.5047 64.0256 22.1868 63.8857 21.931C63.7458 21.6684 63.5624 21.4714 63.3361 21.3401C63.1092 21.2088 62.8628 21.1431 62.5965 21.1431C62.3297 21.1431 62.0798 21.2122 61.847 21.3504C61.6201 21.4817 61.4373 21.6753 61.2974 21.931C61.1575 22.1868 61.0876 22.5047 61.0876 22.8849C61.0876 23.2581 61.1575 23.5761 61.2974 23.8387C61.4373 24.0945 61.6201 24.288 61.847 24.4193C62.0798 24.5506 62.3297 24.6163 62.5965 24.6163ZM66.3976 25.5805V18.1571H67.4768V25.5805H66.3976ZM71.0286 25.7464C70.5289 25.7464 70.0828 25.6255 69.6895 25.3836C69.2968 25.1416 68.987 24.8098 68.7601 24.3882C68.5403 23.9666 68.4303 23.4862 68.4303 22.9471C68.4303 22.4425 68.5373 21.976 68.7501 21.5474C68.9635 21.1189 69.2598 20.7767 69.6395 20.521C70.0263 20.2583 70.469 20.127 70.9687 20.127C71.4954 20.127 71.9415 20.2445 72.3078 20.4795C72.6811 20.7145 72.9644 21.0359 73.1572 21.4437C73.3506 21.8516 73.447 22.3112 73.447 22.8227C73.447 22.8987 73.4441 22.9678 73.437 23.03C73.437 23.0922 73.4341 23.1406 73.427 23.1752H69.4896C69.5431 23.7005 69.7195 24.0945 70.0193 24.3571C70.3261 24.6198 70.6724 24.7511 71.0586 24.7511C71.4054 24.7511 71.6917 24.6716 71.918 24.5127C72.1449 24.3468 72.3248 24.1429 72.4577 23.9009L73.3471 24.3468C73.1272 24.7615 72.8274 25.1001 72.4477 25.3628C72.0679 25.6185 71.5953 25.7464 71.0286 25.7464ZM70.9786 21.0809C70.6189 21.0809 70.3126 21.1949 70.0593 21.423C69.8065 21.6511 69.6366 21.9552 69.5496 22.3354H72.3777C72.3648 22.1557 72.3078 21.969 72.2078 21.7755C72.1079 21.582 71.9551 21.4195 71.7481 21.2882C71.5483 21.15 71.292 21.0809 70.9786 21.0809ZM77.84 25.5805L75.9213 18.1571H77.1405L78.2797 22.9782L78.3996 23.621H78.4596L78.6095 22.9782L80.0485 18.1571H81.1478L82.5269 22.9782L82.6768 23.6106H82.7367L82.8567 22.9782L83.9959 18.1571H85.2051L83.3164 25.5805H82.1571L80.788 20.6558L80.6281 19.9611H80.5682L80.3983 20.6558L78.9692 25.5805H77.84ZM87.212 25.7464C86.8458 25.7464 86.5189 25.6739 86.2327 25.5287C85.9464 25.3767 85.723 25.1658 85.5631 24.8963C85.4032 24.6267 85.3233 24.3191 85.3233 23.9735C85.3233 23.6003 85.4167 23.2823 85.6031 23.0197C85.7965 22.7501 86.0528 22.5462 86.3726 22.408C86.6924 22.2697 87.0457 22.2006 87.4319 22.2006C87.7517 22.2006 88.0315 22.2317 88.2713 22.2939C88.5176 22.3561 88.7046 22.4218 88.8309 22.4909V22.211C88.8309 21.8653 88.711 21.5889 88.4712 21.3815C88.2313 21.1742 87.9215 21.0705 87.5418 21.0705C87.282 21.0705 87.0357 21.1327 86.8023 21.2571C86.5689 21.3746 86.3826 21.537 86.2427 21.7444L85.5031 21.1534C85.723 20.8355 86.0128 20.5867 86.3726 20.4069C86.7388 20.2203 87.1385 20.127 87.5718 20.127C88.3113 20.127 88.8809 20.3171 89.2806 20.6972C89.6804 21.0705 89.8802 21.5958 89.8802 22.2732V25.5805H88.8309V24.9274H88.771C88.6375 25.1416 88.4377 25.3317 88.1714 25.4976C87.9051 25.6635 87.5853 25.7464 87.212 25.7464ZM87.4019 24.8341C87.6817 24.8341 87.928 24.765 88.1414 24.6267C88.3548 24.4884 88.5211 24.3088 88.6411 24.0876C88.7675 23.8595 88.8309 23.6141 88.8309 23.3514C88.6775 23.2616 88.4976 23.189 88.2913 23.1337C88.085 23.0715 87.8651 23.0404 87.6317 23.0404C87.192 23.0404 86.8787 23.1337 86.6924 23.3203C86.506 23.5001 86.4125 23.7212 86.4125 23.9839C86.4125 24.2327 86.5025 24.4366 86.6824 24.5956C86.8622 24.7546 87.1021 24.8341 87.4019 24.8341ZM91.0783 25.5805V18.1571H92.1576V25.5805H91.0783ZM93.4402 25.5805V18.1571H94.5195V25.5805H93.4402ZM98.0713 25.7464C97.5716 25.7464 97.1255 25.6255 96.7322 25.3836C96.3395 25.1416 96.0297 24.8098 95.8028 24.3882C95.5829 23.9666 95.473 23.4862 95.473 22.9471C95.473 22.4425 95.58 21.976 95.7928 21.5474C96.0062 21.1189 96.3025 20.7767 96.6822 20.521C97.069 20.2583 97.5117 20.127 98.0113 20.127C98.538 20.127 98.9842 20.2445 99.3504 20.4795C99.7237 20.7145 100.007 21.0359 100.2 21.4437C100.393 21.8516 100.49 22.3112 100.49 22.8227C100.49 22.8987 100.487 22.9678 100.48 23.03C100.48 23.0922 100.477 23.1406 100.47 23.1752H96.5323C96.5858 23.7005 96.7622 24.0945 97.062 24.3571C97.3688 24.6198 97.7151 24.7511 98.1013 24.7511C98.4481 24.7511 98.7344 24.6716 98.9607 24.5127C99.1876 24.3468 99.3675 24.1429 99.5004 23.9009L100.39 24.3468C100.17 24.7615 99.8701 25.1001 99.4904 25.3628C99.1106 25.6185 98.638 25.7464 98.0713 25.7464ZM98.0213 21.0809C97.6616 21.0809 97.3553 21.1949 97.1019 21.423C96.8492 21.6511 96.6793 21.9552 96.5923 22.3354H99.4204C99.4075 22.1557 99.3504 21.969 99.2505 21.7755C99.1506 21.582 98.9977 21.4195 98.7908 21.2882C98.591 21.15 98.3346 21.0809 98.0213 21.0809ZM101.885 24.0461V21.2675H100.995V20.2929H101.885V18.7999H102.964V20.2929H104.213V21.2675H102.964V23.8076C102.964 24.0703 103.014 24.2707 103.114 24.409C103.22 24.5472 103.397 24.6163 103.643 24.6163C103.77 24.6163 103.876 24.5991 103.963 24.5645C104.056 24.5299 104.15 24.4815 104.243 24.4193V25.508C104.13 25.5563 104.01 25.5944 103.883 25.622C103.756 25.6496 103.606 25.6635 103.434 25.6635C102.96 25.6635 102.584 25.5218 102.304 25.2384C102.025 24.9481 101.885 24.5506 101.885 24.0461Z" fill="white"/>
<defs>
<linearGradient id="paint0_linear_2326_15447" x1="19.9007" y1="22.3516" x2="7.57825" y2="36.831" gradientUnits="userSpaceOnUse">
<stop stop-color="#4285F4"/>
<stop offset="1" stop-color="#1B74E8"/>
</linearGradient>
</defs>
</svg>
