<svg width="632" height="632" viewBox="0 0 632 632" fill="none" xmlns="http://www.w3.org/2000/svg">
<g filter="url(#filter0_d_1588_19902)">
<path fill-rule="evenodd" clip-rule="evenodd" d="M574.488 154.196C574.839 153.746 575.222 153.317 575.635 152.914L575.622 152.903L575.77 152.784C576.262 152.316 576.796 151.883 577.368 151.491L582.373 147.442C581.056 145.36 579.711 143.288 578.339 141.226L571.393 144.887L571.382 144.866C565.792 147.545 558.925 145.853 555.272 140.599C551.483 135.146 552.496 127.787 557.409 123.539L562.206 119.098C560.535 117 558.841 114.929 557.126 112.885L551.075 117.089C545.172 121.191 537.061 119.731 532.959 113.828C529.557 108.933 529.98 102.52 533.591 98.1334L533.568 98.1145L538.28 92.3378C536.374 90.4366 534.448 88.5639 532.502 86.7195L527.614 90.8666C527.122 91.3561 526.598 91.7998 526.046 92.1967L525.901 92.3197L525.893 92.305C521.495 95.3755 515.462 95.5102 510.855 92.2057C505.014 88.0162 503.675 79.8852 507.864 74.0445L511.711 68.6816C509.607 67.0126 507.485 65.3731 505.345 63.7634L500.216 69.3301L500.199 69.3139C495.827 73.7096 488.79 74.4132 483.59 70.6835C478.194 66.8133 476.685 59.5394 479.893 53.8923L482.818 48.311C480.536 46.8881 478.238 45.4961 475.926 44.1351L471.766 49.9339C467.576 55.7746 459.445 57.1131 453.603 52.9236C448.759 49.4492 447.011 43.264 448.946 37.9224L448.917 37.9123L451.349 31.102C449.049 30.0096 446.737 28.9457 444.413 27.9106L440.924 34.0006L440.904 33.9887C437.619 39.2463 430.914 41.4965 425.015 39.016C418.893 36.4421 415.806 29.6855 417.678 23.4665L419.141 17.9314C416.576 17.0441 414.001 16.1901 411.415 15.3696L408.874 21.4138C406.087 28.0396 398.457 31.1522 391.83 28.366C386.335 26.0553 383.256 20.4133 383.954 14.7754L383.924 14.7718L384.713 8.16053C382.044 7.56352 379.368 7.00108 376.685 6.47336L375.014 11.8413C374.861 12.5181 374.656 13.1738 374.403 13.8043L374.346 13.9859L374.332 13.9776C372.263 18.9269 367.242 22.2724 361.581 21.9505C354.404 21.5424 348.917 15.3941 349.325 8.21788L349.658 2.35807C346.963 2.06592 344.264 1.80828 341.562 1.58526L340.341 8.33441L340.317 8.33014C338.982 14.3837 333.417 18.7479 327.028 18.3846C320.398 18.0076 315.227 12.6738 314.909 6.18689L314.438 0.51416C311.882 0.522963 309.325 0.56279 306.768 0.63372L306.247 6.92434C306.245 7.6182 306.188 8.30284 306.078 8.9732L306.062 9.16272L306.046 9.15784C305.103 14.4386 300.93 18.7959 295.335 19.7128C288.241 20.8751 281.548 16.0672 280.385 8.974L279.339 2.59392C276.672 2.90211 274.006 3.2447 271.343 3.6218L271.642 11.0413L271.618 11.0423C271.631 17.2415 267.149 22.7113 260.833 23.7461C254.28 24.82 248.073 20.7383 246.352 14.4756L244.526 8.6166C241.905 9.22394 239.288 9.86576 236.677 10.5422L237.804 17.4166C238.967 24.5099 234.158 31.2024 227.065 32.3647C221.182 33.3287 215.574 30.1865 213.168 25.04L213.141 25.0528L210.133 18.6918C207.582 19.6005 205.039 20.5439 202.505 21.5219L204.036 27.3071C204.266 27.9616 204.441 28.6261 204.562 29.2945L204.611 29.4783L204.594 29.479C205.473 34.7709 202.999 40.2735 198.033 43.0099C191.738 46.4792 183.821 44.1883 180.351 37.8931L177.38 32.5024C174.961 33.6881 172.552 34.9073 170.153 36.1602L172.804 42.7671L172.782 42.776C174.869 48.6134 172.476 55.2679 166.871 58.3564C161.055 61.5613 153.84 59.7922 150.122 54.4664L146.608 49.7786C144.331 51.2285 142.067 52.7112 139.816 54.2268L143.052 60.0984C146.522 66.3936 144.231 74.3092 137.935 77.7785C132.714 80.6556 126.378 79.5711 122.388 75.5264L122.367 75.5475L117.52 70.6774C115.519 72.2926 113.543 73.9282 111.591 75.5835L115.396 81.0784L115.377 81.0921C118.709 86.3195 117.856 93.3394 113.078 97.5966C108.12 102.014 100.692 101.893 95.8833 97.5269L91.6976 93.978C89.7757 95.9151 87.883 97.8733 86.0196 99.852L90.2417 104.59C95.0242 109.956 94.5505 118.183 89.1837 122.965C84.733 126.931 78.3146 127.282 73.5255 124.225L73.5095 124.25L67.9963 120.766C66.2969 122.923 64.6285 125.1 62.9913 127.295L67.0297 131.031C67.5748 131.461 68.0785 131.928 68.5388 132.428L68.6784 132.557L68.6647 132.566C72.2424 136.564 73.1018 142.536 70.3753 147.507C66.9185 153.809 59.0068 156.115 52.704 152.659L47.6338 149.878C46.2054 152.189 44.8086 154.517 43.4434 156.859L48.9434 160.817L48.9294 160.837C53.8195 164.648 55.3646 171.549 52.2872 177.159C49.0939 182.981 42.0537 185.353 36.061 182.847L30.8133 180.86C29.8605 182.877 28.9295 184.904 28.0207 186.939L32.9522 189.864C33.5753 190.169 34.1657 190.521 34.7205 190.913L34.8841 191.01L34.8727 191.022C39.2091 194.18 41.3017 199.839 39.6781 205.271C37.6198 212.158 30.3678 216.072 23.4802 214.014L17.9622 212.365C17.0726 214.933 16.2165 217.512 15.3939 220.101L21.5141 222.78L21.5045 222.802C27.085 225.502 30.0428 231.926 28.2103 238.057C26.3088 244.419 19.9225 248.214 13.5377 247.021L8.30641 246.226C7.70392 248.893 7.13592 251.567 6.60266 254.248L12.4427 255.994C19.3302 258.052 23.2449 265.304 21.1866 272.19C19.4796 277.902 14.2005 281.569 8.51968 281.48L8.51935 281.51L2.4106 281.442C2.10796 284.193 1.84125 286.949 1.61073 289.709L6.56295 290.683C7.25235 290.762 7.92635 290.896 8.5804 291.079L8.76703 291.116L8.76037 291.131C13.9038 292.656 17.7697 297.289 18.0579 302.951C18.4233 310.13 12.8996 316.245 5.72042 316.61L0.512695 316.875C0.519802 319.612 0.562418 322.35 0.640808 325.088L6.80156 325.528L6.79982 325.552C12.9624 326.23 17.8996 331.293 18.225 337.684C18.5625 344.316 13.8147 350.029 7.3988 351.041L2.56286 351.974C2.87598 354.703 3.22503 357.431 3.61027 360.156L9.37007 359.863C16.5493 359.498 22.6654 365.021 23.0307 372.2C23.3337 378.153 19.5865 383.375 14.2036 385.193L14.2133 385.221L8.63577 387.132C9.22791 389.684 9.85279 392.232 10.5105 394.774L16.1378 393.908L16.1415 393.931C22.3005 393.222 28.2399 397.061 29.9779 403.22C31.7813 409.611 28.4226 416.237 22.3923 418.649L18.3362 420.435C19.2566 423.045 20.2132 425.648 21.206 428.243L26.2755 426.812C33.1938 424.861 40.3848 428.886 42.337 435.804C43.956 441.541 41.4635 447.465 36.6195 450.434L36.6353 450.459L32.0641 453.289C33.2912 455.812 34.5549 458.325 35.8551 460.827L39.8984 459.253C40.523 458.95 41.1638 458.702 41.8144 458.507L41.9916 458.438L41.9942 458.454C47.1542 456.987 52.9006 458.827 56.1779 463.454C60.3328 469.319 58.9458 477.442 53.0798 481.597L49.3312 484.251C50.8052 486.579 52.3135 488.894 53.8561 491.195L58.7713 488.548L58.7827 488.569C64.3492 485.839 71.2309 487.47 74.93 492.692C78.7684 498.11 77.8211 505.478 72.9462 509.77L69.703 512.827C71.3455 514.882 73.0094 516.912 74.6941 518.916L78.9219 516.083C79.4658 515.652 80.0371 515.27 80.6297 514.938L80.7877 514.832L80.7938 514.848C85.5111 512.293 91.5202 512.84 95.7252 516.643C101.057 521.465 101.469 529.695 96.6474 535.026L93.081 538.968C95.0178 540.905 96.976 542.813 98.9549 544.691L103.715 540.573L103.73 540.591C108.57 536.716 115.641 536.811 120.388 541.104C125.313 545.558 125.991 552.955 122.166 558.205L119.314 562.412C121.462 564.124 123.629 565.805 125.814 567.455L129.795 563.055C134.617 557.724 142.848 557.311 148.179 562.133C152.6 566.132 153.639 572.475 151.114 577.564L151.141 577.577L148.46 583.043C150.81 584.513 153.177 585.95 155.561 587.354L158.58 583.291C158.948 582.703 159.359 582.152 159.806 581.641L159.92 581.488L159.931 581.5C163.521 577.515 169.366 576.019 174.602 578.195C181.239 580.955 184.383 588.573 181.623 595.21L179.575 600.135C182.042 601.314 184.523 602.46 187.017 603.573L190.14 598.072L190.16 598.084C193.424 592.813 200.12 590.536 206.029 592.993C212.161 595.542 215.275 602.286 213.428 608.513L212.127 613.516C214.714 614.415 217.312 615.279 219.92 616.11L222.24 610.53C225 603.893 232.618 600.75 239.256 603.51C244.76 605.798 247.862 611.428 247.186 617.069L247.216 617.072L246.496 623.318C248.739 623.823 250.986 624.303 253.239 624.759L254.699 619.9L254.722 619.907C256.733 614.043 262.754 610.334 269.062 611.416C275.607 612.539 280.143 618.422 279.726 624.903L279.604 628.949C282.374 629.27 285.149 629.555 287.927 629.803L288.767 624.911C289.982 617.827 296.71 613.069 303.795 614.284C309.671 615.292 313.947 620.091 314.542 625.741L314.572 625.738L315.156 631.058C317.966 631.067 320.778 631.038 323.59 630.971L323.914 626.577C323.91 625.883 323.962 625.198 324.065 624.526L324.079 624.337L324.095 624.341C324.991 619.052 329.125 614.658 334.712 613.691C341.795 612.465 348.531 617.213 349.757 624.295L350.601 629.168C353.328 628.868 356.054 628.532 358.778 628.16L358.481 622.15L358.505 622.149C358.437 615.95 362.87 610.44 369.176 609.349C375.719 608.216 381.963 612.242 383.74 618.489L385.307 623.366C387.975 622.764 390.639 622.127 393.297 621.453L392.261 615.472C391.035 608.389 395.783 601.654 402.866 600.428C408.74 599.412 414.376 602.503 416.827 607.628L416.854 607.615L419.707 613.511C422.608 612.497 425.499 611.439 428.379 610.336L426.997 605.133L427.026 605.125C425.544 599.641 427.8 593.623 432.917 590.564C439.087 586.876 447.079 588.888 450.768 595.057L453.411 599.478C455.904 598.265 458.388 597.016 460.859 595.732L459.196 591.79C456.47 585.895 458.579 578.772 464.279 575.365C469.772 572.082 476.726 573.369 480.716 578.114L480.735 578.099L484.074 582.393C486.408 580.918 488.729 579.409 491.037 577.865L488.749 574.039C485.06 567.869 487.072 559.878 493.242 556.19C498.108 553.281 504.108 553.918 508.236 557.344L508.245 557.33L508.38 557.465C508.896 557.906 509.382 558.392 509.831 558.921L512.825 561.924C515.033 560.161 517.211 558.373 519.36 556.561L516.368 552.194L516.392 552.178C513.16 547.506 513.272 541.079 517.07 536.485C521.65 530.944 529.854 530.166 535.395 534.745L539.439 538.088C541.401 536.119 543.332 534.129 545.234 532.117L542.244 528.846C537.702 524.203 537.305 516.785 541.536 511.667C545.613 506.735 552.597 505.621 557.945 508.757L557.958 508.737L562.814 511.839C564.53 509.679 566.215 507.5 567.869 505.302L564.15 502.228C558.61 497.649 557.83 489.445 562.41 483.905C566.022 479.535 571.89 478.128 576.926 479.975L576.93 479.959L577.102 480.041C577.736 480.284 578.356 480.579 578.957 480.927L583.208 482.958C584.61 480.713 585.983 478.452 587.325 476.177L583.959 473.819C578.516 470.275 576.515 463.121 579.531 457.205C582.438 451.504 589.013 448.898 594.915 450.796L594.923 450.774L599.918 452.593C601.12 450.092 602.288 447.576 603.421 445.047L599.552 443.075C593.148 439.81 590.603 431.972 593.868 425.568C596.443 420.517 601.864 417.868 607.182 418.576L607.182 418.559L607.367 418.602C608.039 418.701 608.709 418.854 609.371 419.063L613.393 419.99C614.325 417.322 615.221 414.643 616.08 411.953L611.331 409.891L611.343 409.864C606.121 407.625 602.8 402.122 603.574 396.212C604.507 389.085 611.042 384.064 618.17 384.998L623.249 385.663C623.865 382.952 624.444 380.234 624.988 377.509L620.834 376.36C614.519 374.842 610.239 368.77 611.101 362.186C611.932 355.841 617.256 351.185 623.453 350.999L623.453 350.975L629.118 351.021C629.412 348.414 629.674 345.803 629.903 343.189L624.104 342.102L624.109 342.072C618.52 341.05 614.059 336.423 613.499 330.488C612.825 323.332 618.08 316.985 625.237 316.31L631.116 315.757C631.118 313.015 631.084 310.273 631.015 307.53L625.914 307.297C619.419 307.22 613.897 302.252 613.274 295.641C612.673 289.27 616.828 283.547 622.829 281.988L622.823 281.965L629.175 280.57C628.873 277.865 628.536 275.161 628.163 272.46L622.606 272.984C615.449 273.658 609.101 268.403 608.427 261.247C607.895 255.602 611.052 250.461 615.921 248.21L615.912 248.196L616.092 248.132C616.712 247.856 617.36 247.627 618.031 247.449L623.26 245.606C622.652 242.94 622.009 240.279 621.329 237.623L614.771 238.654L614.766 238.625C609.158 239.532 603.405 236.665 600.891 231.259C597.861 224.741 600.688 217.001 607.206 213.971L613.293 211.142C612.395 208.595 611.463 206.055 610.496 203.524L604.828 205.25C598.682 207.352 591.815 204.517 589.015 198.496C586.317 192.693 588.317 185.911 593.45 182.433L593.437 182.413L599.679 178.522C598.609 176.317 597.511 174.119 596.385 171.931L590.003 174.35C589.376 174.647 588.733 174.889 588.081 175.079L587.903 175.146L587.9 175.13C582.727 176.551 576.998 174.659 573.762 170.003C570.331 165.066 570.791 158.584 574.488 154.196ZM537.504 437.781C557.332 407.241 571.42 370.035 570.511 337.262C570.098 322.382 561.299 325.932 551.231 335.786C551.442 335.839 551.655 335.885 551.87 335.925L551.865 335.947L556.305 336.779C556.129 338.78 555.929 340.779 555.703 342.774L551.367 342.739L551.367 342.758C546.623 342.9 542.548 346.464 541.911 351.321C541.251 356.361 544.528 361.009 549.363 362.171L552.542 363.05C552.283 364.349 552.013 365.645 551.733 366.939C551.563 367.724 551.388 368.509 551.211 369.292L547.323 368.783C541.866 368.068 536.863 371.912 536.149 377.367C535.556 381.892 538.099 386.104 542.096 387.818L542.087 387.839L545.722 389.416C545.064 391.475 544.378 393.527 543.665 395.569L540.586 394.86C540.08 394.7 539.567 394.582 539.053 394.506L538.911 394.473L538.911 394.486C534.839 393.944 530.69 395.973 528.718 399.839C526.219 404.741 528.167 410.74 533.069 413.24L536.031 414.749C535.163 416.685 534.269 418.611 533.349 420.526L529.526 419.133L529.52 419.151C525.25 417.778 520.521 419.483 518.135 423.357C518.681 428.303 519.532 432.816 520.69 436.468C520.834 436.574 520.981 436.675 521.132 436.774L523.709 438.578C523.278 439.309 522.843 440.038 522.403 440.764C525.745 447.327 530.769 448.154 537.504 437.781ZM367.267 545.969C367.503 546.461 367.699 546.978 367.852 547.517L369.052 551.248C370.206 550.988 371.358 550.719 372.51 550.442C375.334 554.15 374.091 557.845 366.117 561.049C335.695 573.278 295.908 572.98 260.381 564.987C242.438 560.95 249.034 551.865 263.288 543.881C263.405 544.717 263.416 545.573 263.314 546.43L263.336 546.432L262.785 551.212C264.502 551.599 266.222 551.967 267.947 552.315L269.065 548.597L269.083 548.602C270.621 544.113 275.231 541.274 280.06 542.102C285.071 542.962 288.544 547.465 288.225 552.426L288.131 555.522C289.16 555.642 290.189 555.755 291.22 555.861C292.313 555.973 293.408 556.079 294.503 556.177L295.145 552.432C296.075 547.01 301.227 543.367 306.651 544.298C311.149 545.069 314.422 548.743 314.878 553.068L314.901 553.065L315.348 557.137C317.499 557.144 319.652 557.121 321.805 557.07L322.053 553.707C322.05 553.176 322.089 552.652 322.168 552.138L322.179 551.993L322.191 551.996C322.877 547.948 326.042 544.584 330.319 543.844C335.741 542.905 340.898 546.54 341.837 551.961L342.483 555.69C344.571 555.461 346.658 555.203 348.743 554.919L348.516 550.319L348.534 550.318C348.483 545.639 351.782 541.472 356.503 540.556C360.64 542.271 364.349 544.097 367.267 545.969ZM144.879 156.823C127.403 160.527 113.583 159.603 123.378 145.453C142.039 118.495 175.414 96.837 209.471 83.949C228.238 76.8472 225.931 90.8444 216.453 107.204C214.692 106.333 213.17 104.935 212.149 103.084L209.874 98.9569C208.023 99.8645 206.178 100.798 204.342 101.757L206.372 106.815L206.355 106.822C207.953 111.29 206.121 116.384 201.83 118.748C197.377 121.202 191.853 119.847 189.007 115.771L186.316 112.182C184.573 113.291 182.84 114.426 181.117 115.586L183.594 120.082C186.251 124.901 184.497 130.96 179.677 133.615C175.68 135.818 170.83 134.988 167.775 131.892L167.759 131.908L164.048 128.179C163.41 128.694 162.775 129.212 162.144 129.732C161.259 130.461 160.381 131.195 159.509 131.935L162.423 136.142L162.408 136.152C164.959 140.154 164.305 145.527 160.648 148.786C156.852 152.167 151.165 152.075 147.484 148.733L144.279 146.016C142.808 147.498 141.359 148.997 139.932 150.512L143.165 154.139C143.896 154.959 144.467 155.866 144.879 156.823ZM81.6754 342.282C81.0596 342.514 80.4134 342.687 79.7435 342.792L76.0408 343.506C76.2804 345.596 76.5477 347.684 76.8427 349.77L81.2526 349.545C86.7486 349.266 91.4308 353.494 91.7106 358.989C91.9425 363.546 89.0738 367.543 84.9528 368.934L84.9604 368.956L80.6899 370.419C81.1432 372.373 81.6216 374.323 82.1251 376.269L86.4336 375.606L86.4364 375.624C91.1515 375.081 95.6983 378.02 97.0289 382.734C98.4095 387.626 95.8381 392.698 91.2216 394.545L88.1161 395.912C88.8207 397.91 89.553 399.902 90.3132 401.888L94.1943 400.793C99.4907 399.299 104.996 402.381 106.49 407.676C107.73 412.068 105.822 416.603 102.113 418.875L102.125 418.895L98.6257 421.06C99.565 422.992 100.532 424.916 101.528 426.831L104.623 425.626C105.102 425.394 105.592 425.204 106.09 425.055L106.226 425.002L106.228 425.014C106.857 424.835 107.498 424.721 108.141 424.669C106.543 443.174 101.514 457.141 90.6899 443.175C70.6036 417.261 60.0039 378.914 57.9727 342.56C56.8703 322.829 69.1281 328.755 81.6754 342.282ZM410.158 101.907C410.707 101.37 411.198 100.764 411.617 100.094L411.633 100.104L414.304 95.4413C416.082 96.2338 417.853 97.0481 419.614 97.8843L417.752 103.098L417.773 103.105C416.293 107.194 417.63 111.929 421.339 114.589C425.811 117.795 432.036 116.771 435.244 112.3L438.428 107.861C440.199 108.903 441.958 109.968 443.704 111.057L441.466 115.33C439.01 119.653 440.164 125.221 444.295 128.183C448.276 131.038 453.664 130.5 457.01 127.135L457.024 127.147L460.95 122.886C462.588 124.118 464.213 125.373 465.824 126.651L462.879 130.756C459.671 135.227 460.696 141.451 465.168 144.658C468.695 147.187 473.313 147.084 476.681 144.734L476.687 144.745L476.798 144.651C477.22 144.347 477.622 144.008 477.998 143.633L481.741 140.458C483.23 141.87 484.705 143.304 486.164 144.759L482.556 149.181L482.574 149.195C481.35 150.682 480.605 152.472 480.38 154.331C501.034 158.452 518.093 156.359 503.783 140.265C479.588 113.053 447.443 89.6074 415.598 81.7968C400.399 78.0691 402.383 88.6745 410.158 101.907ZM249.112 175.467C259.429 190.31 288.476 219.435 301.328 220.189C303.401 220.311 305.441 220.549 307.488 220.787L307.49 220.787C318.132 222.026 328.994 223.29 346.034 208.496C366.179 191.007 389.597 169.512 387.342 152.973C342.202 132.905 289.609 132.019 242.879 152.709C242.731 161.05 244.613 168.993 249.112 175.467ZM137.331 330.367C133.278 281.078 149.874 231.176 184.72 193.988C200.002 198.949 213.591 225.089 224.529 247.547C234.411 267.834 230.379 277.998 226.428 287.956L226.428 287.957C225.668 289.873 224.91 291.781 224.256 293.753C220.201 305.971 184.549 326.487 167.54 332.609C158.068 336.018 147.384 334.686 137.331 330.367ZM271.526 488.328C231.188 478.232 194.19 454.047 168.595 417.224C164.764 411.712 161.287 406.06 158.16 400.293C167.482 387.341 195.621 381.134 219.677 376.473C241.832 372.181 250.607 378.706 259.204 385.099L259.205 385.1L259.206 385.101C260.86 386.331 262.507 387.556 264.242 388.698C274.995 395.777 285.587 435.521 287.099 453.534C288.153 466.087 281.544 478.55 271.526 488.328ZM445.335 194.447C450.952 200.509 456.214 207.036 461.067 214.017C485.328 248.922 495.371 289.468 492.433 328.79C488.799 330.897 485.338 332.633 482.293 334.01C466.968 340.939 439.867 323.716 417.565 308.656C398.863 296.027 397.273 285.209 395.715 274.61C395.415 272.57 395.116 270.538 394.697 268.503C392.099 255.895 412.715 220.303 424.384 206.497C429.594 200.333 437.002 196.419 445.335 194.447ZM468.481 405.727C455.823 427.336 438.381 446.606 416.461 461.836C396.625 475.618 374.966 484.811 352.745 489.64C350.195 487.035 347.965 484.506 346.091 482.22C335.431 469.212 345.053 438.579 353.829 413.142C361.188 391.81 371.227 387.475 381.062 383.227C382.955 382.41 384.84 381.595 386.698 380.664C398.205 374.892 437.924 385.592 454.281 393.29C460.005 395.984 464.744 400.34 468.481 405.727Z" fill="#DDDDDD" fill-opacity="0.1"/>
</g>
<defs>
<filter id="filter0_d_1588_19902" x="0.512695" y="0.51416" width="630.603" height="630.545" filterUnits="userSpaceOnUse" color-interpolation-filters="sRGB">
<feFlood flood-opacity="0" result="BackgroundImageFix"/>
<feColorMatrix in="SourceAlpha" type="matrix" values="0 0 0 0 0 0 0 0 0 0 0 0 0 0 0 0 0 0 127 0" result="hardAlpha"/>
<feOffset/>
<feColorMatrix type="matrix" values="0 0 0 0 0 0 0 0 0 0 0 0 0 0 0 0 0 0 0.01 0"/>
<feBlend mode="normal" in2="BackgroundImageFix" result="effect1_dropShadow_1588_19902"/>
<feBlend mode="normal" in="SourceGraphic" in2="effect1_dropShadow_1588_19902" result="shape"/>
</filter>
</defs>
</svg>
