<svg width="114" height="156" viewBox="0 0 114 156" fill="none" xmlns="http://www.w3.org/2000/svg">
<path d="M0 36.6464C0 36.6464 25.2817 37.4473 39.7996 29.5612C54.3175 21.6751 67.4622 0 67.4622 0C67.4622 0 67.7082 27.2916 74.5264 39.9178C81.3446 52.5441 104 67.6626 104 67.6626C104 67.6626 76.7887 67.9097 64.2004 74.7478C51.6121 81.5859 36.5378 104.309 36.5378 104.309C36.5378 104.309 37.0091 78.3458 29.4736 64.3911C21.9381 50.4364 0 36.6464 0 36.6464Z" fill="url(#paint0_linear_1451_15134)" fill-opacity="0.9"/>
<path d="M58.217 131.879C58.217 131.879 70.2846 126.91 75.4602 120.129C80.6358 113.348 82.267 100.367 82.267 100.367C82.267 100.367 88.1188 113.16 93.9817 117.661C99.8445 122.163 113.685 124.488 113.685 124.488C113.685 124.488 100.93 130.358 96.442 136.238C91.9543 142.118 89.6352 156 89.6352 156C89.6352 156 84.4002 143.68 77.9205 138.706C71.4409 133.731 58.217 131.879 58.217 131.879Z" fill="url(#paint1_linear_1451_15134)" fill-opacity="0.9"/>
<defs>
<linearGradient id="paint0_linear_1451_15134" x1="89.1657" y1="-3.40905" x2="-19.6621" y2="119.356" gradientUnits="userSpaceOnUse">
<stop stop-color="#FFC148"/>
<stop offset="1" stop-color="#FFA900"/>
</linearGradient>
<linearGradient id="paint1_linear_1451_15134" x1="89.1657" y1="-3.40905" x2="-19.6621" y2="119.356" gradientUnits="userSpaceOnUse">
<stop stop-color="#FFC148"/>
<stop offset="1" stop-color="#FFA900"/>
</linearGradient>
</defs>
</svg>
